<svg width="32" height="32" viewBox="0 0 32 32" fill="none" xmlns="http://www.w3.org/2000/svg">
<path d="M23.8 3H8.2V5.6H5.6V8.2H3V23.8H5.6V26.4H8.2V29H23.8V26.4H26.4V23.8H29V8.2H26.4V5.6H23.8V3ZM23.8 5.6V8.2H26.4V23.8H23.8V26.4H8.2V23.8H5.6V8.2H8.2V5.6H23.8Z" fill="#F1FA8C"/>
<path fill-rule="evenodd" clip-rule="evenodd" d="M14.4224 17.2271H8.46289V20.3821H11.2674V23.1866H14.4224V20.3821V17.2271Z" fill="#F1FA8C"/>
<path d="M5.30786 14.4224H8.46292V17.2269H5.30786V14.4224Z" fill="#F1FA8C"/>
<path fill-rule="evenodd" clip-rule="evenodd" d="M14.4224 5.30786H11.2674V8.46292H8.46289V14.4225H11.6179V11.618H14.4224V5.30786Z" fill="#F1FA8C"/>
<path fill-rule="evenodd" clip-rule="evenodd" d="M20.0314 8.46289H23.1865V11.2674H26.6921V14.4224V17.5775H20.0314V14.4224H17.2269V11.2674H20.0314V8.46289Z" fill="#F1FA8C"/>
</svg>
