<svg width="100" height="100" viewBox="0 0 100 100" fill="none" xmlns="http://www.w3.org/2000/svg">
<path d="M54.1667 8.33325H45.8334V33.3333H54.1667V8.33325ZM54.1667 66.6666H45.8334V91.6666H54.1667V66.6666ZM91.6667 45.8333V54.1666H66.6667V45.8333H91.6667ZM33.3334 54.1666V45.8333H8.33337V54.1666H33.3334ZM62.5 29.1666H70.8334V37.4999H62.5V29.1666ZM79.1667 20.8333H70.8334V29.1666H79.1667V20.8333ZM37.5 29.1666H29.1667V37.4999H37.5V29.1666ZM20.8334 20.8333H29.1667V29.1666H20.8334V20.8333ZM62.5 70.8332H70.8334V79.1666H79.1667V70.8332H70.8334V62.4999H62.5V70.8332ZM29.1667 70.8332V62.4999H37.5V70.8332H29.1667ZM29.1667 70.8332V79.1666H20.8334V70.8332H29.1667Z" fill="#F2F2F2"/>
</svg>
